<?xml version="1.0" encoding="UTF-8"?>
<svg version="1.1" xmlns="http://www.w3.org/2000/svg" width="2400" height="959">
<path d="M0 0 C115.83 0 231.66 0 351 0 C353.68564383 6.04269862 356.19852166 11.99609686 358.453125 18.19140625 C358.91075226 19.43747902 358.91075226 19.43747902 359.37762451 20.70872498 C360.33795278 23.32560872 361.29404883 25.94401456 362.25 28.5625 C362.90596898 30.35231656 363.56221652 32.14203106 364.21875 33.93164062 C365.81571797 38.28658885 367.40889602 42.6429061 369 47 C375.8135032 31.66961779 381.2003411 15.7419313 387 0 C502.17 0 617.34 0 736 0 C736 20.13 736 40.26 736 61 C674.62 61 613.24 61 550 61 C549.67 52.09 549.34 43.18 549 34 C545.7 42.91 542.4 51.82 539 61 C426.14 61 313.28 61 197 61 C194.03 52.42 191.06 43.84 188 35 C187.67 43.58 187.34 52.16 187 61 C125.29 61 63.58 61 0 61 C0 40.87 0 20.74 0 0 Z " fill="#000000" transform="translate(1441,390)"/>
<path d="M0 0 C225.06 0 450.12 0 682 0 C680.87212571 12.40661721 680.87212571 12.40661721 679.6171875 17.19921875 C679.34060303 18.2557666 679.06401855 19.31231445 678.77905273 20.40087891 C678.48071533 21.48546387 678.18237793 22.57004883 677.875 23.6875 C677.5644165 24.82364746 677.25383301 25.95979492 676.93383789 27.13037109 C674.40202791 36.10812209 671.5458963 44.81928474 667 53 C666.63490524 53.6745925 666.26981049 54.349185 665.89365225 55.0442197 C663.89443792 58.23370277 662.34980278 60.57340184 658.66469349 61.73806149 C655.72951662 62.02127472 652.88712946 62.04369665 649.93863106 61.98438263 C648.25422395 61.99822876 648.25422395 61.99822876 646.53578842 62.01235461 C642.7510349 62.0336288 638.96897271 61.99756719 635.18435669 61.96203613 C632.45265108 61.96107036 629.7210247 61.97218629 626.98934257 61.98274946 C621.03919695 61.99934114 615.08969113 61.98618806 609.13961983 61.9536438 C600.29220753 61.9053867 591.44519911 61.90295502 582.59767921 61.90997971 C567.7153688 61.92049459 552.8333424 61.89374608 537.95111465 61.84584045 C523.21353883 61.79852194 508.47608126 61.76771651 493.73843002 61.75901794 C492.36448585 61.75819307 492.36448585 61.75819307 490.96278522 61.75735153 C486.3111694 61.7546449 481.65955346 61.75223382 477.00793742 61.74993652 C444.05110951 61.73312831 411.09443615 61.67921583 378.13769531 61.60351562 C346.11849795 61.53005374 314.09934286 61.47337823 282.08007812 61.43945312 C281.09329632 61.43840092 280.10651452 61.43734871 279.08983024 61.43626461 C269.18026093 61.42571655 259.27069128 61.41551002 249.36112135 61.40555374 C229.17375922 61.38526343 208.98639986 61.36269341 188.79904175 61.33874512 C187.87083731 61.3376468 186.94263287 61.33654848 185.98630103 61.33541688 C137.95124406 61.27837577 89.9162586 61.18748739 41.88127136 61.08886719 C41.20547814 61.08747995 40.52968492 61.08609272 39.83341312 61.08466345 C26.55560676 61.05734649 13.27780387 61.02853003 0 61 C0 40.87 0 20.74 0 0 Z " fill="#000000" transform="translate(588,741)"/>
<path d="M0 0 C30.17604473 -0.06483931 30.17604473 -0.06483931 41.88127136 -0.08886719 C42.60991239 -0.09036315 43.33855342 -0.09185912 44.08927447 -0.09340042 C92.32584144 -0.19228773 140.56240512 -0.28166799 188.79904175 -0.33874512 C189.73004992 -0.33984957 190.66105809 -0.34095403 191.62027864 -0.34209196 C211.85221348 -0.36603364 232.0841499 -0.38819532 252.31608868 -0.40852264 C262.23741885 -0.41850158 272.15874858 -0.42887397 282.08007812 -0.43945312 C283.06738459 -0.4404992 284.05469106 -0.44154527 285.0719159 -0.44262304 C317.08973362 -0.4767311 349.10743859 -0.53683438 381.12518797 -0.61037777 C414.01980859 -0.68579828 446.91436679 -0.73507418 479.80907242 -0.75131992 C484.45219178 -0.75362526 489.09531093 -0.75623035 493.73843002 -0.75901794 C495.10921692 -0.75982702 495.10921692 -0.75982702 496.50769648 -0.76065244 C511.23515875 -0.77011665 525.96242836 -0.80724909 540.68981198 -0.85465627 C555.48565568 -0.90169598 570.28130783 -0.91975856 585.07722373 -0.90801102 C593.87450574 -0.90191318 602.67108823 -0.91826379 611.46824429 -0.96638034 C617.33988296 -0.99630954 623.21106192 -0.99735974 629.08273194 -0.97465451 C632.43213168 -0.96253768 635.7791255 -0.96761999 639.12856163 -0.99906546 C642.73309762 -1.03095212 646.33415401 -1.01401208 649.93863106 -0.98438263 C650.98334131 -1.00539874 652.02805157 -1.02641485 653.10441971 -1.04806781 C659.974239 -0.91954385 659.974239 -0.91954385 662.9612119 1.75812918 C664.50234636 3.77674812 665.78757755 5.77135033 667 8 C667.4846875 8.83144531 667.969375 9.66289062 668.46875 10.51953125 C673.76030379 22.28522093 677.35699128 34.79018099 680.375 47.3125 C680.54265869 47.99908691 680.71031738 48.68567383 680.88305664 49.39306641 C681.82323762 53.48323381 682 56.69942339 682 61 C456.94 61 231.88 61 0 61 C0 40.87 0 20.74 0 0 Z " fill="#000000" transform="translate(588,156)"/>
<path d="M0 0 C45.97022346 -0.05075403 91.94044672 -0.09914685 137.91069031 -0.12702942 C138.59178993 -0.12744359 139.27288955 -0.12785776 139.97462856 -0.12828448 C154.77913863 -0.1372646 169.583649 -0.14557495 184.38815983 -0.15319599 C191.64899139 -0.15693778 198.90982286 -0.16082747 206.1706543 -0.16479492 C206.89316858 -0.1651872 207.61568287 -0.16557948 208.36009152 -0.16598364 C231.75067496 -0.17875242 255.14123656 -0.20127492 278.53180678 -0.22889166 C302.5820777 -0.25723552 326.63233654 -0.275667 350.68262388 -0.28174497 C354.08476897 -0.28260935 357.48691402 -0.28358626 360.88905907 -0.28463173 C361.89337949 -0.28493513 361.89337949 -0.28493513 362.91798921 -0.28524467 C373.0023774 -0.28856202 383.08673205 -0.300509 393.17110634 -0.31719017 C404.65935624 -0.33612445 416.1475569 -0.34490017 427.63582257 -0.34050413 C433.4932651 -0.33858797 439.35059823 -0.3414676 445.20802116 -0.35761642 C450.58208449 -0.37232361 455.95596589 -0.37288284 461.33003797 -0.36269668 C463.26307216 -0.36143962 465.19611818 -0.36515287 467.12912945 -0.37464955 C483.91019525 -0.4522262 500.01793677 1.41232988 516.1875 6.0625 C517.22793457 6.35922607 518.26836914 6.65595215 519.34033203 6.96166992 C552.98750265 16.92810478 586.92619259 35.14808469 612 60 C612 60.33 612 60.66 612 61 C410.04 61 208.08 61 0 61 C0 40.87 0 20.74 0 0 Z " fill="#000000" transform="translate(588,39)"/>
<path d="M0 0 C201.96 0 403.92 0 612 0 C585.076227 31.4110685 538.01907672 51.88401885 498 59 C497.07492043 59.16814646 496.14984087 59.33629291 495.19672859 59.50953472 C484.74701472 61.21510946 474.5044351 61.27489555 463.94192505 61.24050903 C461.93343835 61.24138253 459.92495187 61.24313615 457.91646659 61.24568737 C452.4297062 61.2501366 446.94302463 61.24219071 441.45627427 61.23213124 C435.52735803 61.22346394 429.59844594 61.22641922 423.66952515 61.22793579 C412.74071066 61.22905064 401.81192467 61.22129792 390.88311736 61.20925403 C380.79395314 61.19823045 370.70479735 61.19178961 360.61562729 61.18975449 C359.9455978 61.18961701 359.27556832 61.18947953 358.58523491 61.18933788 C355.1821786 61.18866117 351.77912228 61.18805842 348.37606595 61.18748413 C324.30294982 61.18328878 300.22984695 61.16982938 276.15673828 61.15087891 C252.7771817 61.1324957 229.39762877 61.11833551 206.01806641 61.10986328 C205.29678471 61.10960023 204.57550302 61.10933718 203.8323643 61.10906615 C196.58863344 61.106429 189.34490255 61.10387739 182.10117164 61.10138843 C167.34624599 61.09631668 152.59132057 61.09067417 137.83639526 61.08468628 C137.15806068 61.0844117 136.4797261 61.08413712 135.78083593 61.08385422 C90.52055149 61.06546812 45.2602756 61.03332134 0 61 C0 40.87 0 20.74 0 0 Z " fill="#000000" transform="translate(588,858)"/>
<path d="M0 0 C173.91 0 347.82 0 527 0 C526.04680353 4.76598236 524.6048376 7.69165174 522 11.625 C521.59845703 12.23891602 521.19691406 12.85283203 520.78320312 13.48535156 C516.90418669 19.31597923 512.59573635 24.71690134 508 30 C506.90365234 31.26263672 506.90365234 31.26263672 505.78515625 32.55078125 C497.86960491 41.4957716 489.60474328 49.74622693 480.25 57.1875 C477.97339104 58.95522683 477.97339104 58.95522683 476 61 C473.40470724 61.19532145 470.91637877 61.2640822 468.32003593 61.24609566 C467.11107559 61.24955719 467.11107559 61.24955719 465.87769181 61.25308865 C463.14794373 61.25842762 460.41842653 61.24937247 457.68869019 61.24050903 C455.72355854 61.2413803 453.75842711 61.24312983 451.79329693 61.24568737 C446.37063707 61.25018032 440.94805552 61.24213059 435.52540565 61.23213124 C429.68625873 61.22352697 423.84711655 61.22641475 418.00796509 61.22793579 C407.88372621 61.22898656 397.75951302 61.22268992 387.63528061 61.21146011 C372.99718604 61.19523406 358.35909864 61.1899934 343.72099628 61.18748413 C319.97398403 61.18328044 296.22698517 61.16979775 272.47998047 61.15087891 C249.40641349 61.13251777 226.33285017 61.11834676 203.25927734 61.10986328 C202.192916 61.1094687 202.192916 61.1094687 201.10501201 61.10906615 C193.96595291 61.10642917 186.82689378 61.10387753 179.68783463 61.10138843 C165.14403189 61.09631566 150.60022939 61.09067315 136.056427 61.08468628 C135.38768885 61.0844117 134.71895071 61.08413712 134.02994777 61.08385422 C89.35329266 61.06544493 44.67664613 61.03329779 0 61 C0 40.87 0 20.74 0 0 Z " fill="#000000" transform="translate(711,390)"/>
<path d="M0 0 C45.22503552 -0.16909967 90.4500734 -0.3304134 135.67533875 -0.4234314 C136.67961341 -0.42550225 136.67961341 -0.42550225 137.70417645 -0.42761494 C152.25512763 -0.45754513 166.80608226 -0.48524679 181.35704203 -0.51065329 C188.49299298 -0.52312649 195.62894299 -0.53609205 202.76489258 -0.54931641 C203.47499935 -0.550624 204.18510612 -0.55193159 204.91673128 -0.5532788 C227.92683656 -0.59588033 250.93669602 -0.6709842 273.94665241 -0.76297221 C297.59552487 -0.85734256 321.24426133 -0.91886463 344.8933189 -0.9391499 C360.13129297 -0.95229022 375.36859573 -0.9942321 390.60634872 -1.07916467 C400.59374616 -1.13199908 410.5807784 -1.14800679 420.56830547 -1.13501377 C426.33203581 -1.12860449 432.09453238 -1.13847063 437.85804367 -1.19205475 C443.13729744 -1.24077807 448.41448996 -1.24314315 453.69383933 -1.20898895 C455.60119724 -1.20476909 457.50868458 -1.21741095 459.41578833 -1.24883182 C475.41308944 -1.49702403 475.41308944 -1.49702403 482.45819378 4.85640907 C483.99871924 6.54708819 485.51572673 8.25972777 487 10 C488.33127667 11.19271996 489.68109322 12.36571883 491.0625 13.5 C505.20550247 25.85347971 518.53893203 41.07786405 527 58 C527 58.99 527 59.98 527 61 C353.09 61 179.18 61 0 61 C0 40.87 0 20.74 0 0 Z " fill="#000000" transform="translate(711,507)"/>
<path d="M0 0 C141.57 0 283.14 0 429 0 C429 20.13 429 40.26 429 61 C287.43 61 145.86 61 0 61 C0 40.87 0 20.74 0 0 Z " fill="#000000" transform="translate(103,858)"/>
<path d="M0 0 C141.57 0 283.14 0 429 0 C429 20.13 429 40.26 429 61 C287.43 61 145.86 61 0 61 C0 40.87 0 20.74 0 0 Z " fill="#000000" transform="translate(103,741)"/>
<path d="M0 0 C141.57 0 283.14 0 429 0 C429 20.13 429 40.26 429 61 C287.43 61 145.86 61 0 61 C0 40.87 0 20.74 0 0 Z " fill="#000000" transform="translate(100,156)"/>
<path d="M0 0 C141.57 0 283.14 0 429 0 C429 20.13 429 40.26 429 61 C287.43 61 145.86 61 0 61 C0 40.87 0 20.74 0 0 Z " fill="#000000" transform="translate(100,39)"/>
<path d="M0 0 C129.03 0 258.06 0 391 0 C395.62 13.53 400.24 27.06 405 41 C406.98 46.61 408.96 52.22 411 58 C411 58.99 411 59.98 411 61 C275.37 61 139.74 61 0 61 C0 40.87 0 20.74 0 0 Z " fill="#000000" transform="translate(1318,156)"/>
<path d="M0 0 C128.37 0 256.74 0 389 0 C389 20.13 389 40.26 389 61 C254.03 61 119.06 61 -20 61 C-16.6245803 48.62346112 -16.6245803 48.62346112 -15.20654297 44.37670898 C-14.73122635 42.94614418 -14.73122635 42.94614418 -14.24630737 41.48667908 C-13.91494781 40.49978592 -13.58358826 39.51289276 -13.2421875 38.49609375 C-12.8936673 37.45099136 -12.54514709 36.40588898 -12.18606567 35.32911682 C-11.45636311 33.14300651 -10.7252169 30.95737758 -9.99267578 28.7722168 C-8.86791537 25.41636218 -7.74806671 22.05889771 -6.62890625 18.70117188 C-5.91695146 16.57021733 -5.20472188 14.43935457 -4.4921875 12.30859375 C-3.98907547 10.8009269 -3.98907547 10.8009269 -3.47579956 9.26280212 C-3.16522614 8.3374617 -2.85465271 7.41212128 -2.53466797 6.45874023 C-2.12521439 5.23609718 -2.12521439 5.23609718 -1.70748901 3.98875427 C-1 2 -1 2 0 0 Z " fill="#000000" transform="translate(1908,156)"/>
<path d="M0 0 C115.17 0 230.34 0 349 0 C353.29 11.55 357.58 23.1 362 35 C365.73499002 45.04125587 365.73499002 45.04125587 369.47192383 55.08178711 C370 57 370 57 370 61 C247.9 61 125.8 61 0 61 C0 40.87 0 20.74 0 0 Z " fill="#000000" transform="translate(1318,39)"/>
<path d="M0 0 C113.85 0 227.7 0 345 0 C345 20.13 345 40.26 345 61 C223.89 61 102.78 61 -22 61 C-18.62467113 49.74890378 -18.62467113 49.74890378 -17.02294922 45.3984375 C-16.48757034 43.93772827 -16.48757034 43.93772827 -15.94137573 42.44750977 C-15.56626862 41.43358154 -15.1911615 40.41965332 -14.8046875 39.375 C-14.41177521 38.30628662 -14.01886292 37.23757324 -13.61404419 36.13647461 C-12.79015791 33.89727063 -11.96485158 31.65858868 -11.13818359 29.42041016 C-9.86882605 25.98328237 -8.60397795 22.54452063 -7.33984375 19.10546875 C-6.53671864 16.9243833 -5.73334228 14.74339034 -4.9296875 12.5625 C-4.55053192 11.53237793 -4.17137634 10.50225586 -3.7807312 9.44091797 C-3.43011627 8.4923291 -3.07950134 7.54374023 -2.71826172 6.56640625 C-2.25551346 5.31259155 -2.25551346 5.31259155 -1.78341675 4.03344727 C-1 2 -1 2 0 0 Z " fill="#000000" transform="translate(1952,39)"/>
<path d="M0 0 C1.4074334 0.00056958 1.4074334 0.00056958 2.84329981 0.00115067 C3.92166009 -0.00084038 5.00002037 -0.00283143 6.11105824 -0.00488281 C7.31044842 -0.00196997 8.5098386 0.00094287 9.74557394 0.00394398 C11.00824604 0.00308955 12.27091815 0.00223513 13.57185304 0.00135481 C17.09269132 -0.00089252 20.61349947 0.00313437 24.13433391 0.00813287 C27.92508114 0.01243379 31.71582654 0.01099121 35.50657552 0.0102306 C42.07963937 0.00970514 48.65269332 0.01285427 55.22575468 0.01846844 C64.72940802 0.02658042 74.23305656 0.02919835 83.73671298 0.03045643 C99.15413367 0.03264743 114.57154907 0.0393088 129.98896688 0.04875904 C144.96943536 0.05793193 159.94990241 0.06501337 174.93037313 0.06926686 C176.3144515 0.06966094 176.3144515 0.06966094 177.72649104 0.07006299 C182.35529842 0.07136798 186.9841058 0.0726317 191.61291319 0.07387489 C230.0401083 0.08424899 268.46729365 0.10268809 306.89448446 0.1241985 C306.89448446 20.2541985 306.89448446 40.3841985 306.89448446 61.1241985 C197.66448446 61.1241985 88.43448446 61.1241985 -24.10551554 61.1241985 C-20.72959692 49.87113643 -20.72959692 49.87113643 -19.12846476 45.41496998 C-18.77154551 44.41791538 -18.41462626 43.42086079 -18.04689127 42.39359242 C-17.67178416 41.35465336 -17.29667704 40.3157143 -16.91020304 39.24529225 C-16.3208346 37.6053706 -16.3208346 37.6053706 -15.71955973 35.93231922 C-14.89558311 33.64188468 -14.07027779 31.35192772 -13.24369913 29.06243092 C-11.97346885 25.54216959 -10.70916928 22.01981604 -9.44535929 18.49724537 C-8.64232675 16.26730056 -7.83895369 14.03747833 -7.03520304 11.80779225 C-6.65604746 10.75063511 -6.27689188 9.69347798 -5.88624674 8.60428578 C-5.53563181 7.63560063 -5.18501688 6.66691548 -4.82377726 5.66887623 C-4.51527842 4.81301426 -4.20677958 3.95715229 -3.88893229 3.07535511 C-2.71852003 0.16035792 -2.71852003 0.16035792 0 0 Z " fill="#000000" transform="translate(1870.1055155396461,272.8758015036583)"/>
<path d="M0 0 C101.97 0 203.94 0 309 0 C330 58 330 58 330 61 C221.1 61 112.2 61 0 61 C0 40.87 0 20.74 0 0 Z " fill="#000000" transform="translate(1441,273)"/>
<path d="M0 0 C101.97 0 203.94 0 309 0 C309 20.13 309 40.26 309 61 C207.03 61 105.06 61 0 61 C0 40.87 0 20.74 0 0 Z " fill="#000000" transform="translate(1991,858)"/>
<path d="M0 0 C101.97 0 203.94 0 309 0 C309 20.13 309 40.26 309 61 C207.03 61 105.06 61 0 61 C0 40.87 0 20.74 0 0 Z " fill="#000000" transform="translate(1991,741)"/>
<path d="M0 0 C100.98 0 201.96 0 306 0 C306 20.13 306 40.26 306 61 C205.02 61 104.04 61 0 61 C0 40.87 0 20.74 0 0 Z " fill="#000000" transform="translate(1322,858)"/>
<path d="M0 0 C100.98 0 201.96 0 306 0 C306 20.13 306 40.26 306 61 C205.02 61 104.04 61 0 61 C0 40.87 0 20.74 0 0 Z " fill="#000000" transform="translate(1322,741)"/>
<path d="M0 0 C98.67 0 197.34 0 299 0 C295.62473018 12.37598935 295.62473018 12.37598935 294.11474609 16.62329102 C293.60939835 18.05385582 293.60939835 18.05385582 293.09384155 19.51332092 C292.74060822 20.50021408 292.38737488 21.48710724 292.0234375 22.50390625 C291.65272125 23.54900864 291.282005 24.59411102 290.90005493 25.67088318 C290.12371862 27.85718219 289.34548842 30.04280956 288.56542969 32.2277832 C287.3675653 35.58332661 286.17548618 38.9408823 284.984375 42.29882812 C284.22689378 44.42980529 283.46909291 46.56066886 282.7109375 48.69140625 C282.1750148 50.1990731 282.1750148 50.1990731 281.62826538 51.73719788 C281.2976712 52.6625383 280.96707703 53.58787872 280.62646484 54.54125977 C280.19036392 55.76390282 280.19036392 55.76390282 279.74545288 57.01124573 C279 59 279 59 278 61 C193.52 61 109.04 61 22 61 C18.79820917 53.315702 15.67953443 45.66914318 12.79296875 37.87109375 C12.42271072 36.87417007 12.0524527 35.8772464 11.67097473 34.85011292 C10.89923453 32.76928637 10.12879172 30.6879782 9.35961914 28.60620117 C8.17802724 25.41189138 6.98857003 22.22057873 5.79882812 19.02929688 C5.046396 16.99757316 4.2944258 14.96567831 3.54296875 12.93359375 C3.18679977 11.98052841 2.8306308 11.02746307 2.46366882 10.04551697 C2.1394545 9.16352127 1.81524017 8.28152557 1.48120117 7.37280273 C1.19427902 6.59847397 0.90735687 5.8241452 0.61174011 5.02635193 C0 3 0 3 0 0 Z " fill="#000000" transform="translate(1661,507)"/>
<path d="M0 0 C61.71 0 123.42 0 187 0 C193.97075472 22.0740566 193.97075472 22.0740566 195.8125 32.1875 C196.11704102 33.71793945 196.11704102 33.71793945 196.42773438 35.27929688 C198.06679238 43.97225468 198.43713217 51.99411471 199 61 C133.33 61 67.66 61 0 61 C0 40.87 0 20.74 0 0 Z " fill="#000000" transform="translate(1077,624)"/>
<path d="M0 0 C65.67 0 131.34 0 199 0 C196.6868211 26.6015573 196.6868211 26.6015573 194.6875 35 C194.49994141 35.86753906 194.31238281 36.73507812 194.11914062 37.62890625 C192.29557282 45.68544055 189.64534398 53.06396806 187 61 C125.29 61 63.58 61 0 61 C0 40.87 0 20.74 0 0 Z " fill="#000000" transform="translate(1077,273)"/>
<path d="M0 0 C70.95 0 141.9 0 215 0 C214.35351159 3.23244204 213.78548947 5.87344993 212.6965332 8.89379883 C212.30525993 9.98698174 212.30525993 9.98698174 211.90608215 11.10224915 C211.62383286 11.87932724 211.34158356 12.65640533 211.05078125 13.45703125 C210.60813179 14.68796761 210.60813179 14.68796761 210.15653992 15.94377136 C209.53024017 17.68340365 208.90225514 19.42242999 208.27270508 21.16088867 C207.32998634 23.76421137 206.39203269 26.36920731 205.45507812 28.97460938 C202.54179439 37.06284684 199.59989691 45.14064457 196.60546875 53.19921875 C196.3558992 53.87612259 196.10632965 54.55302643 195.84919739 55.2504425 C194.11688705 59.88311295 194.11688705 59.88311295 193 61 C190.7850814 61.09701605 188.56700203 61.12186691 186.34996033 61.12025452 C185.6467349 61.12110894 184.94350947 61.12196337 184.21897417 61.12284368 C181.84509484 61.12450053 179.47128502 61.1189738 177.09741211 61.11352539 C175.40270489 61.11324354 173.70799755 61.11340122 172.01329041 61.1139679 C167.39778374 61.11425594 162.78230283 61.10835809 158.16680217 61.10139394 C153.34879736 61.09516156 148.53079203 61.09455669 143.71278381 61.09336853 C134.58257502 61.09025487 125.45237814 61.08204102 116.32217461 61.07201904 C105.93057324 61.06085898 95.53897132 61.05534772 85.14736545 61.05032361 C63.76490364 61.03985843 42.38245257 61.02225832 21 61 C18.40338981 53.93478158 15.81249421 46.86749003 13.22878361 39.79754448 C12.02875522 36.51439277 10.82680437 33.23197241 9.62036133 29.95117188 C8.23196212 26.17529432 6.8521076 22.39634327 5.47265625 18.6171875 C5.04034195 17.44509735 4.60802765 16.2730072 4.16261292 15.06539917 C3.76227341 13.964711 3.3619339 12.86402283 2.94946289 11.72998047 C2.41984703 10.28436234 2.41984703 10.28436234 1.87953186 8.80953979 C1 6 1 6 0 0 Z " fill="#000000" transform="translate(1703,624)"/>
<path d="M0 0 C61.71 0 123.42 0 187 0 C187 20.13 187 40.26 187 61 C125.29 61 63.58 61 0 61 C0 40.87 0 20.74 0 0 Z " fill="#000000" transform="translate(1441,624)"/>
<path d="M0 0 C61.71 0 123.42 0 187 0 C187 20.13 187 40.26 187 61 C125.29 61 63.58 61 0 61 C0 40.87 0 20.74 0 0 Z " fill="#000000" transform="translate(711,624)"/>
<path d="M0 0 C61.71 0 123.42 0 187 0 C187 20.13 187 40.26 187 61 C125.29 61 63.58 61 0 61 C0 40.87 0 20.74 0 0 Z " fill="#000000" transform="translate(1441,507)"/>
<path d="M0 0 C61.71 0 123.42 0 187 0 C187 20.13 187 40.26 187 61 C125.29 61 63.58 61 0 61 C0 40.87 0 20.74 0 0 Z " fill="#000000" transform="translate(711,273)"/>
<path d="M0 0 C61.38 0 122.76 0 186 0 C186 20.13 186 40.26 186 61 C124.62 61 63.24 61 0 61 C0 40.87 0 20.74 0 0 Z " fill="#000000" transform="translate(1991,624)"/>
<path d="M0 0 C61.38 0 122.76 0 186 0 C186 20.13 186 40.26 186 61 C124.62 61 63.24 61 0 61 C0 40.87 0 20.74 0 0 Z " fill="#000000" transform="translate(223,624)"/>
<path d="M0 0 C61.38 0 122.76 0 186 0 C186 20.13 186 40.26 186 61 C124.62 61 63.24 61 0 61 C0 40.87 0 20.74 0 0 Z " fill="#000000" transform="translate(1991,507)"/>
<path d="M0 0 C61.38 0 122.76 0 186 0 C186 20.13 186 40.26 186 61 C124.62 61 63.24 61 0 61 C0 40.87 0 20.74 0 0 Z " fill="#000000" transform="translate(223,507)"/>
<path d="M0 0 C61.38 0 122.76 0 186 0 C186 20.13 186 40.26 186 61 C124.62 61 63.24 61 0 61 C0 40.87 0 20.74 0 0 Z " fill="#000000" transform="translate(223,390)"/>
<path d="M0 0 C61.38 0 122.76 0 186 0 C186 20.13 186 40.26 186 61 C124.62 61 63.24 61 0 61 C0 40.87 0 20.74 0 0 Z " fill="#000000" transform="translate(223,273)"/>
<path d="M0 0 C43.23 0 86.46 0 131 0 C130.32949274 3.35253632 129.66937095 6.23180442 128.58886719 9.41625977 C128.3047699 10.2580629 128.02067261 11.09986603 127.72796631 11.96717834 C127.42070618 12.86617355 127.11344604 13.76516876 126.796875 14.69140625 C126.47720764 15.63249741 126.15754028 16.57358856 125.82818604 17.54319763 C125.15055242 19.53495393 124.47129396 21.52615806 123.79052734 23.5168457 C122.76256557 26.52572019 121.74227753 29.53711867 120.72265625 32.54882812 C120.06036308 34.49234679 119.39761652 36.43571102 118.734375 38.37890625 C118.43521179 39.26373184 118.13604858 40.14855743 117.82781982 41.06019592 C115.48922027 47.86909894 112.78549542 54.314811 110 61 C80.96 61 51.92 61 22 61 C12.75231793 37.88079481 12.75231793 37.88079481 10.15625 30.83984375 C9.85682495 30.03180801 9.5573999 29.22377228 9.24890137 28.39125061 C8.63622046 26.73489995 8.02490326 25.07804413 7.41503906 23.4206543 C6.47757566 20.87664677 5.53185156 18.33579776 4.5859375 15.79492188 C3.9838807 14.16424492 3.38229866 12.53339257 2.78125 10.90234375 C2.50011353 10.14936508 2.21897705 9.39638641 1.92932129 8.62059021 C0.82980986 5.61327329 0 3.22884142 0 0 Z " fill="#000000" transform="translate(1745,741)"/>
<path d="M0 0 C15.84 0 31.68 0 48 0 C45.75 10.125 45.75 10.125 44.02880859 14.79516602 C43.45844376 16.355765 43.45844376 16.355765 42.8765564 17.94789124 C42.47127716 19.03887619 42.06599792 20.12986115 41.6484375 21.25390625 C41.22954254 22.39536606 40.81064758 23.53682587 40.37905884 24.71287537 C39.04973103 28.33141507 37.71249706 31.94697293 36.375 35.5625 C35.46822486 38.02649952 34.56196937 40.49069033 33.65625 42.95507812 C31.44350847 48.97227884 29.22428145 54.98705617 27 61 C25.02 61 23.04 61 21 61 C18.48807651 53.92111627 15.97994471 46.84089728 13.47436523 39.75976562 C12.62268592 37.35418763 11.77015942 34.94890939 10.91674805 32.54394531 C9.68572271 29.07436543 8.45781243 25.6036962 7.23046875 22.1328125 C6.85222458 21.06886261 6.47398041 20.00491272 6.08427429 18.90872192 C5.72412735 17.88841888 5.36398041 16.86811584 4.99291992 15.81689453 C4.67981369 14.93309113 4.36670746 14.04928772 4.04411316 13.13870239 C2.59769546 8.7906347 1.31672499 4.3890833 0 0 Z " fill="#000000" transform="translate(1787,858)"/>
</svg>
