<?xml version="1.0" encoding="UTF-8"?>
<svg version="1.1" xmlns="http://www.w3.org/2000/svg" width="1200" height="483">
<path d="M0 0 C5.49351891 4.48475327 6.88278793 9.18806756 8 16 C8.23965211 19.28803868 8.23531402 22.55233099 8.1953125 25.84765625 C8.1924826 26.74495956 8.18965271 27.64226288 8.18673706 28.5667572 C8.17564979 31.39881414 8.15056747 34.23054061 8.125 37.0625 C8.11495537 38.99674019 8.10583213 40.93098539 8.09765625 42.86523438 C8.07574814 47.5769479 8.04129901 52.28841816 8 57 C8.6064183 56.99111755 9.21283661 56.98223511 9.83763123 56.9730835 C16.18096437 56.88420732 22.52411902 56.82409935 28.86791992 56.78027344 C31.23159985 56.76022718 33.59523061 56.73298281 35.95874023 56.69824219 C39.36714857 56.64941729 42.77489803 56.62696052 46.18359375 56.609375 C47.23083115 56.58872986 48.27806854 56.56808472 49.35704041 56.54681396 C55.96574949 56.54481803 61.33633169 57.42080049 67 61 C70.62686156 65.08021926 71.90766929 68.55248793 72 74 C71.12131929 78.58780194 69.92740907 82.02246071 66.6875 85.4375 C60.02993751 89.30817587 53.98045865 89.26820038 46.4765625 89.1953125 C45.37524994 89.1924826 44.27393738 89.18965271 43.13925171 89.18673706 C39.63438892 89.17557478 36.12978508 89.15047711 32.625 89.125 C30.24349328 89.11496511 27.86198255 89.10584015 25.48046875 89.09765625 C19.65355803 89.07564837 13.82679752 89.04220999 8 89 C8.03726051 104.71700108 8.09725836 120.4337431 8.18390274 136.15054035 C8.22361546 143.44907789 8.25604717 150.74750883 8.27099609 158.04614258 C8.28405313 164.41188637 8.31112018 170.77739482 8.35461307 177.14300603 C8.37713764 180.50976203 8.39291616 183.87622876 8.39188385 187.24306679 C8.39426001 191.01306723 8.42139485 194.78215897 8.45410156 198.55200195 C8.4490712 199.65324402 8.44404083 200.75448608 8.43885803 201.88909912 C8.56421076 211.27422133 10.73949666 220.7242799 17 228 C25.61990792 235.08368671 33.98194887 236.96946539 45 236 C57.10666454 233.84327383 65.27492292 226.83692108 72.35546875 217.14453125 C74.15488146 214.36250409 75.05868312 212.56914584 74.71484375 209.234375 C73.67207446 204.51627131 72.34970425 199.89058917 71.03515625 195.2421875 C68.39729017 184.94835183 67.64016132 174.91906887 67.6875 164.3125 C67.69073273 163.32413147 67.69073273 163.32413147 67.69403076 162.3157959 C67.85643845 131.30813179 77.80339081 103.52882829 100.13989258 81.37231445 C123.42714885 59.29979246 153.66333826 54.20747577 184.58251953 54.86376953 C201.71975275 55.54690828 224.96198724 60.03358237 237.6875 72.1875 C241.40395352 76.70751104 241.34436251 80.62896877 241.27734375 86.2734375 C240.75515235 91.40709382 238.11378535 93.91477325 234.5625 97.375 C225.89993245 101.3263466 218.32006441 99.33252646 209.76757812 96.22753906 C207.88232332 95.50895274 206.00296677 94.77463505 204.13085938 94.02246094 C186.41763812 86.95894574 165.2240417 86.2195249 147.453125 93.44140625 C139.43456585 97.03230286 133.1032675 101.71522268 127 108 C126.17628906 108.79277344 126.17628906 108.79277344 125.3359375 109.6015625 C110.01213127 125.58093263 107.47443952 148.36979986 107.73046875 169.35546875 C108.29237828 188.9392615 116.01333681 207.52911405 130.26953125 221.171875 C146.2627595 234.91726664 166.61434368 238.16764486 187 237 C205.42707768 234.67602893 220.97019648 226.14654595 233 212 C250.29504342 189.44971027 258.06109876 162.31212728 265.93359375 135.44140625 C273.67589722 109.03227789 284.39893212 78.81606763 308.7421875 63.24609375 C329.93982384 51.78558305 355.31817065 52.52920784 378 59 C385.76480986 61.47777817 393.65951216 64.66199071 398.15625 71.84765625 C399.81633957 76.08242178 399.52350007 80.54055496 399 85 C396.78685502 89.59022663 394.48600183 91.71821521 390 94 C380.40052267 95.79208766 371.8397648 92.66935593 362.96875 89.41015625 C354.09039303 86.18007251 342.78169748 84.96887883 333.875 88.6875 C328.91860273 91.32904506 325.1481129 94.75113283 323 100 C321.83832115 108.33963131 323.02312899 115.17615686 328 122 C336.32282353 131.60201236 347.80102482 138.17467532 358.265625 145.16894531 C378.09945709 158.4505293 398.92609166 172.5483249 404.4921875 197.33984375 C406.88162416 214.562168 405.60640314 231.62927075 395 246 C383.68862389 260.64734836 367.96873442 267.85022185 350 271 C345.55142715 271.38444457 341.15051049 271.4310534 336.6875 271.375 C334.91656982 271.35977295 334.91656982 271.35977295 333.10986328 271.34423828 C317.13228416 271.06146867 294.48124344 268.43833631 282 257 C278.08940768 252.62734922 277.36416348 248.12965825 277.609375 242.3671875 C278.35458545 237.85121216 280.71563471 235.12868465 284.0625 232.1875 C288.45077886 229.49790973 292.98484774 229.34935006 297.96630859 230.42431641 C300.05637288 231.00953441 302.12116576 231.64843921 304.1875 232.3125 C305.68825478 232.77391928 307.18956165 233.2335466 308.69140625 233.69140625 C309.42246582 233.91586426 310.15352539 234.14032227 310.90673828 234.37158203 C325.51264642 238.75642079 340.36066661 241.86290345 354.62890625 234.67578125 C361.38703107 230.43386106 364.77185505 225.67680194 367 218 C368.19595702 208.07985121 366.53912756 200.87685533 360.44921875 192.9921875 C354.71685461 186.71327867 347.36399868 182.27096127 340.34472656 177.57861328 C329.28198686 170.13050053 318.18452844 162.62855881 308 154 C307.3503125 153.45988281 306.700625 152.91976562 306.03125 152.36328125 C302.50773769 149.39964908 299.20648715 146.30365343 296 143 C295.78601563 144.2890625 295.57203125 145.578125 295.3515625 146.90625 C293.73168628 154.97442508 290.99533169 162.71343374 288.375 170.5 C288.10544495 171.30435486 287.83588989 172.10870972 287.5581665 172.93743896 C283.64265478 184.5835392 279.63036572 196.0528175 274 207 C273.62697754 207.73766602 273.25395508 208.47533203 272.86962891 209.23535156 C259.64587827 235.09873624 240.39794495 255.99499148 212.61328125 266.25 C200.6031624 270.11597909 189.15964293 271.41004254 176.5625 271.375 C175.85990051 271.37478851 175.15730103 271.37457703 174.43341064 271.37435913 C162.59909039 271.33891094 151.40121397 270.31389477 140 267 C138.74832031 266.63777344 137.49664062 266.27554687 136.20703125 265.90234375 C122.43249311 261.39236733 110.86297564 254.53647366 100 245 C98.33966894 243.6587855 96.67477617 242.32313277 95 241 C94.36384766 241.85271484 94.36384766 241.85271484 93.71484375 242.72265625 C82.18088731 257.90691978 67.7576374 268.06475028 48.4140625 270.71875 C26.24187444 272.54529181 4.5742243 269.97852025 -13.0859375 255.26171875 C-23.68202143 245.45729626 -29.04330496 232.11194129 -31 218 C-31.09688474 215.1496856 -31.1478425 212.3237713 -31.14717102 209.4737854 C-31.15084771 208.62900804 -31.1545244 207.78423068 -31.1583125 206.913854 C-31.16930275 204.09051231 -31.17318518 201.26720749 -31.17700195 198.44384766 C-31.18326993 196.41655868 -31.18991702 194.38927084 -31.19691467 192.36198425 C-31.21791079 185.71268507 -31.22831018 179.06338577 -31.23828125 172.4140625 C-31.24232991 170.12289798 -31.24644687 167.83173358 -31.25063133 165.54056931 C-31.26967008 154.77962994 -31.28390612 144.01869739 -31.2922433 133.25774443 C-31.30202313 120.84063294 -31.32836773 108.42369935 -31.36874419 96.00665057 C-31.39889735 86.40393473 -31.41371127 76.80126993 -31.41702431 67.19850767 C-31.4193749 61.46492635 -31.42833737 55.7315354 -31.45348549 49.99800491 C-31.47675828 44.60531038 -31.48100251 39.2129317 -31.47072411 33.82019997 C-31.47022851 31.84332415 -31.47655582 29.86643281 -31.49028015 27.88960457 C-31.50799688 25.18608611 -31.50089422 22.48370165 -31.48774719 19.78018188 C-31.49871644 19.00215104 -31.50968568 18.22412019 -31.52098733 17.42251265 C-31.44255015 10.71956411 -29.39843067 5.39843067 -24.625 0.625 C-16.85725847 -4.1836019 -7.93877487 -4.60908211 0 0 Z " fill="#DC1F71" transform="translate(136,107)"/>
<path d="M0 0 C5.49351891 4.48475327 6.88278793 9.18806756 8 16 C8.23965211 19.28803868 8.23531402 22.55233099 8.1953125 25.84765625 C8.1924826 26.74495956 8.18965271 27.64226288 8.18673706 28.5667572 C8.17564979 31.39881414 8.15056747 34.23054061 8.125 37.0625 C8.11495537 38.99674019 8.10583213 40.93098539 8.09765625 42.86523438 C8.07574814 47.5769479 8.04129901 52.28841816 8 57 C8.6064183 56.99111755 9.21283661 56.98223511 9.83763123 56.9730835 C16.18096437 56.88420732 22.52411902 56.82409935 28.86791992 56.78027344 C31.23159985 56.76022718 33.59523061 56.73298281 35.95874023 56.69824219 C39.36714857 56.64941729 42.77489803 56.62696052 46.18359375 56.609375 C47.23083115 56.58872986 48.27806854 56.56808472 49.35704041 56.54681396 C55.96574949 56.54481803 61.33633169 57.42080049 67 61 C70.62686156 65.08021926 71.90766929 68.55248793 72 74 C71.12131929 78.58780194 69.92740907 82.02246071 66.6875 85.4375 C60.02993751 89.30817587 53.98045865 89.26820038 46.4765625 89.1953125 C45.37524994 89.1924826 44.27393738 89.18965271 43.13925171 89.18673706 C39.63438892 89.17557478 36.12978508 89.15047711 32.625 89.125 C30.24349328 89.11496511 27.86198255 89.10584015 25.48046875 89.09765625 C19.65355803 89.07564837 13.82679752 89.04220999 8 89 C8.03726051 104.71700108 8.09725836 120.4337431 8.18390274 136.15054035 C8.22361546 143.44907789 8.25604717 150.74750883 8.27099609 158.04614258 C8.28405313 164.41188637 8.31112018 170.77739482 8.35461307 177.14300603 C8.37713764 180.50976203 8.39291616 183.87622876 8.39188385 187.24306679 C8.39426001 191.01306723 8.42139485 194.78215897 8.45410156 198.55200195 C8.4490712 199.65324402 8.44404083 200.75448608 8.43885803 201.88909912 C8.56421076 211.27422133 10.73949666 220.7242799 17 228 C25.61990792 235.08368671 33.98194887 236.96946539 45 236 C56.16147996 234.01165252 64.24095006 227.89441559 71 219 C71.76309779 217.84185801 72.51492164 216.67612538 73.25 215.5 C73.8275 214.675 74.405 213.85 75 213 C75.99 213 76.98 213 78 213 C78.39832031 213.83144531 78.39832031 213.83144531 78.8046875 214.6796875 C79.15789062 215.40414062 79.51109375 216.12859375 79.875 216.875 C80.22304687 217.59429687 80.57109375 218.31359375 80.9296875 219.0546875 C81.96557543 221.15135019 81.96557543 221.15135019 84 223 C84.77645076 224.38129465 85.52300294 225.77954902 86.25 227.1875 C88.68791528 231.68490789 91.55244231 235.23173927 95 239 C91.43722571 249.44709337 80.73080675 258.24872309 71.30859375 263.5 C51.36067852 273.03413872 27.56809465 273.78761997 6.65625 266.8984375 C-8.32214697 261.03568111 -19.04801845 251.59210342 -26 237 C-29.42452679 227.83679649 -31.14947456 219.25073624 -31.14717102 209.4737854 C-31.15084771 208.62900804 -31.1545244 207.78423068 -31.1583125 206.913854 C-31.16930275 204.09051231 -31.17318518 201.26720749 -31.17700195 198.44384766 C-31.18326993 196.41655868 -31.18991702 194.38927084 -31.19691467 192.36198425 C-31.21791079 185.71268507 -31.22831018 179.06338577 -31.23828125 172.4140625 C-31.24232991 170.12289798 -31.24644687 167.83173358 -31.25063133 165.54056931 C-31.26967008 154.77962994 -31.28390612 144.01869739 -31.2922433 133.25774443 C-31.30202313 120.84063294 -31.32836773 108.42369935 -31.36874419 96.00665057 C-31.39889735 86.40393473 -31.41371127 76.80126993 -31.41702431 67.19850767 C-31.4193749 61.46492635 -31.42833737 55.7315354 -31.45348549 49.99800491 C-31.47675828 44.60531038 -31.48100251 39.2129317 -31.47072411 33.82019997 C-31.47022851 31.84332415 -31.47655582 29.86643281 -31.49028015 27.88960457 C-31.50799688 25.18608611 -31.50089422 22.48370165 -31.48774719 19.78018188 C-31.49871644 19.00215104 -31.50968568 18.22412019 -31.52098733 17.42251265 C-31.44255015 10.71956411 -29.39843067 5.39843067 -24.625 0.625 C-16.85725847 -4.1836019 -7.93877487 -4.60908211 0 0 Z " fill="#E71E59" transform="translate(136,107)"/>
<path d="M0 0 C4.16329839 3.97629444 5.1300212 7.09711421 5.27734375 12.703125 C5.21723024 17.76601861 4.50358037 20.57251444 0.96484375 24.390625 C-2.57554046 27.84023013 -5.72549448 28.77692176 -10.53515625 29.140625 C-18.180875 28.94728499 -24.86495055 26.24134999 -31.90429688 23.41308594 C-41.66201238 19.52199403 -50.92873869 18.02942416 -61.41015625 18.140625 C-62.31918701 18.14521729 -63.22821777 18.14980957 -64.16479492 18.15454102 C-70.25984983 18.23627028 -76.14750217 18.72558553 -82.1484375 19.85546875 C-84.38829863 20.27070687 -86.64988663 20.56949745 -88.9140625 20.8203125 C-92.96406424 21.31178737 -96.78331436 22.3264005 -100.66015625 23.578125 C-101.69438721 23.91021973 -101.69438721 23.91021973 -102.74951172 24.24902344 C-125.46885176 31.71968008 -147.90626221 45.14862317 -160.05126953 66.62084961 C-164.15644124 74.78739094 -165.88467892 83.37855261 -167.03515625 92.390625 C-167.36515625 92.390625 -167.69515625 92.390625 -168.03515625 92.390625 C-169.25988767 63.76819821 -159.51482213 36.67328329 -140.3203125 15.32421875 C-108.54062773 -18.71963991 -38.4531099 -30.40821743 0 0 Z " fill="#FC7703" transform="translate(372.03515625,177.609375)"/>
<path d="M0 0 C3.93205036 3.17927494 6.45671753 5.89992887 7.12890625 11.07421875 C7.21256929 17.04775994 7.04168041 20.89507946 2.79296875 25.48828125 C-3.00694511 29.59572878 -8.32265493 29.37213297 -15.20703125 28.48828125 C-19.98714568 27.25972325 -24.60937337 25.59909243 -29.23828125 23.8984375 C-38.11663822 20.66835376 -49.42533377 19.45716008 -58.33203125 23.17578125 C-63.28842852 25.81732631 -67.05891835 29.23941408 -69.20703125 34.48828125 C-70.36045813 42.7686721 -69.20967006 49.72647275 -64.20703125 56.48828125 C-61.04994989 59.72248215 -57.72818757 62.6576818 -54.20703125 65.48828125 C-59.86682237 65.48828125 -64.07692454 60.04385868 -68.20703125 56.48828125 C-69.08617187 55.74578125 -69.9653125 55.00328125 -70.87109375 54.23828125 C-81.16188159 45.31747445 -93.06637849 32.55287773 -94.41015625 18.33984375 C-94.55763032 11.33482534 -92.68379144 6.34700134 -87.94921875 0.99609375 C-66.97469324 -17.15674672 -22.10918471 -15.14381324 0 0 Z " fill="#F8911B" transform="translate(528.20703125,172.51171875)"/>
<path d="M0 0 C5.49243586 4.4838691 6.8885704 9.18740113 8 16 C8.24102922 19.36071086 8.23517002 22.69848441 8.1953125 26.06640625 C8.1924826 26.98590561 8.18965271 27.90540497 8.18673706 28.85276794 C8.17564584 31.75615093 8.15056263 34.65921209 8.125 37.5625 C8.11495588 39.54491738 8.10583255 41.52733966 8.09765625 43.50976562 C8.07574286 48.33996555 8.04129081 53.16992843 8 58 C6.47910767 58.17196899 6.47910767 58.17196899 4.92749023 58.34741211 C3.57530071 58.51108277 2.22317162 58.67525328 0.87109375 58.83984375 C-0.12742615 58.95072327 -0.12742615 58.95072327 -1.14611816 59.06384277 C-11.11413649 60.30641045 -18.09912451 65.11676939 -24.40625 72.7421875 C-26.51648012 75.73168016 -27.82286544 78.54216724 -29 82 C-29.66 82 -30.32 82 -31 82 C-31.09291788 72.88098422 -31.16387492 63.76213287 -31.20724869 54.64274597 C-31.22807209 50.40765593 -31.25629279 46.17289116 -31.30175781 41.93798828 C-31.34540424 37.84660674 -31.36917653 33.75553693 -31.37950897 29.66394043 C-31.3868668 28.10749407 -31.40123476 26.55106365 -31.42292023 24.99475098 C-31.62591709 9.81445441 -31.62591709 9.81445441 -27 3 C-19.67709996 -4.32290004 -8.82133193 -5.12147577 0 0 Z " fill="#FAA215" transform="translate(136,107)"/>
<path d="M0 0 C2.33837891 -0.34057617 2.33837891 -0.34057617 5.2265625 -0.29296875 C6.7734375 -0.2784668 6.7734375 -0.2784668 8.3515625 -0.26367188 C9.43179688 -0.23853516 10.51203125 -0.21339844 11.625 -0.1875 C12.71296875 -0.17396484 13.8009375 -0.16042969 14.921875 -0.14648438 C17.61507409 -0.11104754 20.30729374 -0.06164331 23 0 C25.53107859 6.56372753 28.05743416 13.12925872 30.58056641 19.69604492 C31.43886283 21.92823078 32.29822626 24.16000667 33.15869141 26.39135742 C34.39768985 29.60487535 35.63280141 32.81986425 36.8671875 36.03515625 C37.25059296 37.02709488 37.63399841 38.01903351 38.02902222 39.04103088 C38.38924469 39.98147751 38.74946716 40.92192413 39.12060547 41.89086914 C39.43593231 42.71027481 39.75125916 43.52968048 40.07614136 44.37391663 C41.18902781 47.53731466 42.0787374 50.77558089 43 54 C35.74 54 28.48 54 21 54 C17.7 44.76 14.4 35.52 11 26 C7.7 35.24 4.4 44.48 1 54 C-5.93 54 -12.86 54 -20 54 C-19.3177957 49.9067742 -18.76829649 46.96709138 -17.35766602 43.2355957 C-17.02384415 42.34479813 -16.69002228 41.45400055 -16.34608459 40.53620911 C-15.98566574 39.59226791 -15.62524689 38.64832672 -15.25390625 37.67578125 C-14.69714455 36.20095528 -14.69714455 36.20095528 -14.12913513 34.69633484 C-13.34583379 32.62524186 -12.55981097 30.55517637 -11.77124023 28.48608398 C-10.56369293 25.31563208 -9.36618427 22.14152156 -8.16992188 18.96679688 C-7.40684254 16.95290038 -6.64319031 14.93922085 -5.87890625 12.92578125 C-5.34131432 11.50076042 -5.34131432 11.50076042 -4.79286194 10.04695129 C-4.45588791 9.1656102 -4.11891388 8.2842691 -3.77172852 7.3762207 C-3.47718277 6.6015596 -3.18263702 5.8268985 -2.87916565 5.02876282 C-2 3 -2 3 0 0 Z " fill="#007CC5" transform="translate(766,166)"/>
<path d="M0 0 C7.59 0 15.18 0 23 0 C28.27928418 13.09711777 33.51353574 26.21135611 38.625 39.375 C39.28121338 41.04925049 39.28121338 41.04925049 39.95068359 42.75732422 C40.35109863 43.7938916 40.75151367 44.83045898 41.1640625 45.8984375 C41.51936035 46.81286621 41.8746582 47.72729492 42.24072266 48.66943359 C43 51 43 51 43 54 C36.07 54 29.14 54 22 54 C18.33260564 45.11362137 15.1587433 36.0761224 12 27 C10.11033205 29.83450193 9.17160409 32.0895051 8.08984375 35.2890625 C7.73986328 36.31257813 7.38988281 37.33609375 7.02929688 38.390625 C6.66900391 39.45796875 6.30871094 40.5253125 5.9375 41.625 C5.22004821 43.74307007 4.5001305 45.86030703 3.77734375 47.9765625 C3.46015381 48.91580566 3.14296387 49.85504883 2.81616211 50.82275391 C2 53 2 53 1 54 C-0.56172745 54.08685603 -2.12729344 54.10702219 -3.69140625 54.09765625 C-4.63564453 54.09443359 -5.57988281 54.09121094 -6.55273438 54.08789062 C-7.54595703 54.07951172 -8.53917969 54.07113281 -9.5625 54.0625 C-10.55958984 54.05798828 -11.55667969 54.05347656 -12.58398438 54.04882812 C-15.05604849 54.03700007 -17.52799518 54.02051849 -20 54 C-19.39556975 50.63781177 -18.56608934 47.5583209 -17.35766602 44.36499023 C-17.02384415 43.47734482 -16.69002228 42.5896994 -16.34608459 41.67515564 C-15.98566574 40.72919022 -15.62524689 39.78322479 -15.25390625 38.80859375 C-14.88273178 37.82633316 -14.51155731 36.84407257 -14.12913513 35.83204651 C-13.34502023 33.75948182 -12.55901164 31.68763271 -11.77124023 29.61645508 C-10.56618892 26.44720176 -9.3675858 23.27556701 -8.16992188 20.10351562 C-7.40663008 18.08839766 -6.6429706 16.07341892 -5.87890625 14.05859375 C-5.34131432 12.63660927 -5.34131432 12.63660927 -4.79286194 11.18589783 C-4.45588791 10.30140457 -4.11891388 9.41691132 -3.77172852 8.50561523 C-3.47718277 7.73015854 -3.18263702 6.95470184 -2.87916565 6.15574646 C-2.02373861 4.05820794 -1.01305708 2.02611416 0 0 Z " fill="#007CC5" transform="translate(663,166)"/>
<path d="M0 0 C17.16 0 34.32 0 52 0 C52 5.28 52 10.56 52 16 C47.05 16 42.1 16 37 16 C37 28.54 37 41.08 37 54 C29.74 54 22.48 54 15 54 C15 41.46 15 28.92 15 16 C10.05 16 5.1 16 0 16 C0 10.72 0 5.44 0 0 Z " fill="#007DC5" transform="translate(700,166)"/>
<path d="M0 0 C17.16 0 34.32 0 52 0 C52 5.28 52 10.56 52 16 C47.05 16 42.1 16 37 16 C37 28.54 37 41.08 37 54 C29.74 54 22.48 54 15 54 C15 41.46 15 28.92 15 16 C10.05 16 5.1 16 0 16 C0 10.72 0 5.44 0 0 Z " fill="#007DC4" transform="translate(597,166)"/>
<path d="M0 0 C13 0 13 0 16.00463867 2.59863281 C17.01347351 4.31890869 17.01347351 4.31890869 17.91796875 6.203125 C18.27216385 6.83732361 18.62635895 7.47152222 18.99128723 8.12493896 C20.10511174 10.14450628 21.14532762 12.19270584 22.1875 14.25 C22.92578426 15.61575298 23.66858892 16.97907258 24.41601562 18.33984375 C27.0501895 23.17459939 29.53765337 28.07530673 32 33 C32.33 22.11 32.66 11.22 33 0 C36.3 0 39.6 0 43 0 C43 17.49 43 34.98 43 53 C39.37 53 35.74 53 32 53 C29.27643352 49.88687695 27.8240348 47.60675441 26 44 C24.71837918 41.80683226 23.42882338 39.61828881 22.1328125 37.43359375 C20.79318152 35.10368225 19.45793795 32.77124703 18.125 30.4375 C15.77375 26.333125 13.4225 22.22875 11 18 C10.67 29.55 10.34 41.1 10 53 C6.7 53 3.4 53 0 53 C0 35.51 0 18.02 0 0 Z " fill="#007CC5" transform="translate(698,245)"/>
<path d="M0 0 C12 0 12 0 15.04296875 2.9375 C15.80396601 4.26627843 16.51718487 5.62324782 17.1875 7 C17.5805835 7.71172363 17.97366699 8.42344727 18.37866211 9.15673828 C19.20143116 10.65444405 20.00500232 12.16284036 20.79003906 13.68066406 C22.0029092 16.00557655 23.27960644 18.28114066 24.5859375 20.5546875 C29.92392447 29.84784893 29.92392447 29.84784893 32 34 C32.33 22.78 32.66 11.56 33 0 C35.97 0 38.94 0 42 0 C42 17.49 42 34.98 42 53 C31 53 31 53 28.25415039 50.46484375 C27.57608533 49.31308549 26.94208479 48.13456893 26.34765625 46.9375 C25.9953746 46.31278809 25.64309296 45.68807617 25.28013611 45.04443359 C24.16708696 43.04893594 23.11549036 41.02771303 22.0625 39 C21.3312797 37.66847586 20.59628222 36.33901866 19.85742188 35.01171875 C16.40404353 28.75471448 13.19722738 22.39445476 10 16 C10 28.21 10 40.42 10 53 C6.7 53 3.4 53 0 53 C0 35.51 0 18.02 0 0 Z " fill="#007CC5" transform="translate(958,245)"/>
<path d="M0 0 C7.40793739 7.60815191 8.63620535 15.59653094 8.51953125 25.83203125 C8.07030274 33.51977191 5.71897016 39.04399046 0.38671875 44.64453125 C-5.54233671 49.59099371 -12.42026771 51.0929851 -20.01953125 50.75 C-27.52857336 49.69455631 -32.57604336 46.40830702 -37.24609375 40.4921875 C-42.7526092 32.4040266 -42.82729426 23.26510764 -41.25390625 13.75390625 C-39.39125802 7.07845265 -35.36328481 1.87961345 -29.65234375 -2.01171875 C-19.8562017 -7.07868878 -9.16466365 -5.54142453 0 0 Z M-26.6875 8.375 C-30.69012061 14.72126031 -31.7308008 20.97608109 -30.6875 28.375 C-29.36454443 33.24317919 -27.64017008 36.4872847 -23.9375 39.9375 C-19.93449245 41.70806103 -16.98615961 42.18314801 -12.6875 41.375 C-8.09929831 39.43383775 -6.28038057 37.11179094 -4.3125 32.6875 C-1.52271428 24.68151829 -1.97540862 18.29856187 -5.43359375 10.55078125 C-7.36403265 7.20107886 -9.12478327 5.85386355 -12.6875 4.375 C-18.46617714 3.41529037 -22.71349946 3.71974223 -26.6875 8.375 Z " fill="#007CC5" transform="translate(682.6875,248.625)"/>
<path d="M0 0 C3.52784875 3.69993893 4.3785107 6.03159632 4.9375 11.0625 C4.36291189 16.61685177 1.8832833 21.01483419 -2.4375 24.6875 C-1.83421875 25.49703125 -1.2309375 26.3065625 -0.609375 27.140625 C1.95182999 30.98469104 3.10624329 35.01455872 4.3125 39.4375 C4.53292969 40.20449219 4.75335937 40.97148437 4.98046875 41.76171875 C6.5625 47.35287267 6.5625 47.35287267 6.5625 49.6875 C2.9325 49.6875 -0.6975 49.6875 -4.4375 49.6875 C-5.44113709 46.73035501 -6.4405548 43.7719004 -7.4375 40.8125 C-7.72367188 39.97074219 -8.00984375 39.12898438 -8.3046875 38.26171875 C-8.57539062 37.45605469 -8.84609375 36.65039062 -9.125 35.8203125 C-9.37636719 35.07668457 -9.62773438 34.33305664 -9.88671875 33.56689453 C-10.4375 31.6875 -10.4375 31.6875 -10.4375 29.6875 C-14.0675 29.0275 -17.6975 28.3675 -21.4375 27.6875 C-21.4375 34.9475 -21.4375 42.2075 -21.4375 49.6875 C-24.7375 49.6875 -28.0375 49.6875 -31.4375 49.6875 C-31.4375 32.1975 -31.4375 14.7075 -31.4375 -3.3125 C-8.10889959 -6.22857505 -8.10889959 -6.22857505 0 0 Z M-21.4375 4.6875 C-21.4375 9.6375 -21.4375 14.5875 -21.4375 19.6875 C-14.62269115 20.17433069 -14.62269115 20.17433069 -8.3125 18.125 C-6.1586 15.7252473 -6.1586 15.7252473 -5.875 12.1875 C-6.19629538 8.72479134 -6.19629538 8.72479134 -7.9375 6.3125 C-12.17015088 3.56127693 -16.58808211 3.07102737 -21.4375 4.6875 Z " fill="#007CC5" transform="translate(711.4375,327.3125)"/>
<path d="M0 0 C3.63 0 7.26 0 11 0 C11.01458252 1.12494873 11.02916504 2.24989746 11.04418945 3.40893555 C11.10227754 7.59317387 11.17950964 11.77687997 11.26245117 15.96069336 C11.29565114 17.76952458 11.32369841 19.57845818 11.34643555 21.38745117 C11.38007258 23.99181633 11.43239195 26.5952476 11.48828125 29.19921875 C11.49467117 30.00461594 11.5010611 30.81001312 11.50764465 31.63981628 C11.62691048 36.22152342 12.04848405 39.27136461 15 43 C18.19491759 44.59745879 21.53209389 44.50816842 25 44 C27.96858157 41.79259319 28.82865791 40.51402627 30 37 C30.1539263 34.19839498 30.25738045 31.41701575 30.31640625 28.61328125 C30.33718735 27.79627243 30.35796844 26.97926361 30.37937927 26.13749695 C30.44473079 23.52924966 30.50369273 20.92090225 30.5625 18.3125 C30.60569892 16.54360946 30.64931365 14.77472903 30.69335938 13.00585938 C30.80039743 8.67067537 30.90170544 4.33539071 31 0 C34.63 0 38.26 0 42 0 C42.0747135 4.96212553 42.1288656 9.92391641 42.16479492 14.88647461 C42.17978874 16.57110302 42.20019073 18.25569303 42.22631836 19.94018555 C42.5353387 40.39006097 42.5353387 40.39006097 36.8125 48.375 C31.1318882 53.67690434 25.24597713 54.52796677 17.61328125 54.28515625 C12.57003912 53.73484732 9.29332272 51.99938574 5.25 48.875 C0.4034164 42.68214318 -0.44849973 35.6902411 -0.29296875 28.02734375 C-0.28872391 27.21882462 -0.28447906 26.41030548 -0.28010559 25.57728577 C-0.26350035 23.03033127 -0.22588533 20.4842096 -0.1875 17.9375 C-0.17242958 16.19597508 -0.15874534 14.45443759 -0.14648438 12.71289062 C-0.11365684 8.47494639 -0.06200455 4.23761368 0 0 Z " fill="#007CC5" transform="translate(791,245)"/>
<path d="M0 0 C4.62 0 9.24 0 14 0 C16.42293018 7.38667716 18.84395561 14.77397473 21.26318359 22.16186523 C22.08719823 24.67733827 22.91174186 27.19263809 23.73681641 29.70776367 C24.91967213 33.31384062 26.10065118 36.92052738 27.28125 40.52734375 C27.65310425 41.65961899 28.0249585 42.79189423 28.40808105 43.95848083 C28.74843384 44.99948441 29.08878662 46.04048798 29.43945312 47.11303711 C29.89245789 48.49536781 29.89245789 48.49536781 30.35461426 49.90562439 C31 52 31 52 31 53 C27.04 53 23.08 53 19 53 C18.32779649 51.06441401 17.66241923 49.12645628 17 47.1875 C16.62875 46.10855469 16.2575 45.02960938 15.875 43.91796875 C15 41 15 41 15 38 C9.72 38 4.44 38 -1 38 C-1.474375 39.918125 -1.94875 41.83625 -2.4375 43.8125 C-3.20682713 46.92325754 -3.98651324 49.95953973 -5 53 C-8.63 53 -12.26 53 -16 53 C-14.71744025 45.99271005 -12.99040973 39.37118896 -10.7421875 32.6171875 C-10.43427277 31.67690704 -10.12635803 30.73662659 -9.80911255 29.76785278 C-8.83645159 26.80176943 -7.85587629 23.8383754 -6.875 20.875 C-6.2091076 18.84913175 -5.54373811 16.82309154 -4.87890625 14.796875 C-3.2586373 9.86257651 -1.63127127 4.93067152 0 0 Z M6 11 C5.16338138 13.7907207 4.33057263 16.58248012 3.5 19.375 C3.26152344 20.1690625 3.02304687 20.963125 2.77734375 21.78125 C2.43896484 22.92207031 2.43896484 22.92207031 2.09375 24.0859375 C1.88427734 24.7876709 1.67480469 25.4894043 1.45898438 26.21240234 C0.91710213 28.01526378 0.91710213 28.01526378 1 30 C4.96 30 8.92 30 13 30 C11.02 23.73 9.04 17.46 7 11 C6.67 11 6.34 11 6 11 Z " fill="#007CC5" transform="translate(921,245)"/>
<path d="M0 0 C10.56 0 21.12 0 32 0 C32 2.97 32 5.94 32 9 C25.07 9 18.14 9 11 9 C11 13.29 11 17.58 11 22 C17.6 22 24.2 22 31 22 C31 24.64 31 27.28 31 30 C24.4 30 17.8 30 11 30 C11 34.95 11 39.9 11 45 C18.26 45 25.52 45 33 45 C33 47.97 33 50.94 33 54 C22.11 54 11.22 54 0 54 C0 36.18 0 18.36 0 0 Z " fill="#007CC5" transform="translate(837,323)"/>
<path d="M0 0 C10.23 0 20.46 0 31 0 C31 2.97 31 5.94 31 9 C24.4 9 17.8 9 11 9 C11 13.29 11 17.58 11 22 C17.27 22 23.54 22 30 22 C30 24.64 30 27.28 30 30 C23.73 30 17.46 30 11 30 C11 34.95 11 39.9 11 45 C18.26 45 25.52 45 33 45 C33 47.97 33 50.94 33 54 C22.11 54 11.22 54 0 54 C0 36.18 0 18.36 0 0 Z " fill="#007DC4" transform="translate(640,323)"/>
<path d="M0 0 C3.63 0 7.26 0 11 0 C12.22743958 3.94674364 13.45421583 7.8936927 14.68041992 11.84082031 C15.09626036 13.17909091 15.51227126 14.51730855 15.9284668 15.85546875 C18.32424813 23.55887154 20.70443833 31.26602125 23 39 C23.29245605 38.03175293 23.58491211 37.06350586 23.88623047 36.06591797 C24.97749378 32.45384152 26.06988086 28.84210573 27.16259766 25.23046875 C27.63425582 23.67099035 28.10561426 22.11142126 28.57666016 20.55175781 C29.2560362 18.30249167 29.93651008 16.05356011 30.6171875 13.8046875 C30.82560272 13.1138205 31.03401794 12.42295349 31.24874878 11.71115112 C32.43821826 7.78563237 33.68389686 3.88488277 35 0 C38.63 0 42.26 0 46 0 C45.38708272 6.2554251 43.5255408 11.80198143 41.4375 17.7109375 C41.0861499 18.71967926 40.7347998 19.72842102 40.37280273 20.76773071 C39.63274625 22.88836726 38.8896042 25.00792925 38.14355469 27.12646484 C36.99732213 30.3826071 35.86118588 33.64214027 34.7265625 36.90234375 C34.00579472 38.96374679 33.28446059 41.02495191 32.5625 43.0859375 C32.22081787 44.06501068 31.87913574 45.04408386 31.52709961 46.05282593 C31.0515564 47.40025375 31.0515564 47.40025375 30.56640625 48.77490234 C30.28740479 49.56875336 30.00840332 50.36260437 29.72094727 51.18051147 C29 53 29 53 28 54 C25.98035801 54.07244053 23.95832876 54.08377188 21.9375 54.0625 C20.83277344 54.05347656 19.72804688 54.04445313 18.58984375 54.03515625 C17.73519531 54.02355469 16.88054688 54.01195312 16 54 C13.71320311 46.95509387 11.43547618 39.90730277 9.1640625 32.85742188 C8.3901135 30.45895913 7.61408259 28.06116717 6.8359375 25.6640625 C5.71848666 22.22048949 4.60851945 18.77458189 3.5 15.328125 C3.15001953 14.25508118 2.80003906 13.18203735 2.43945312 12.07647705 C2.11912109 11.07574158 1.79878906 10.0750061 1.46875 9.04394531 C1.18451172 8.16458313 0.90027344 7.28522095 0.60742188 6.37921143 C0 4 0 4 0 0 Z " fill="#007CC5" transform="translate(720,323)"/>
<path d="M0 0 C-0.66 2.97 -1.32 5.94 -2 9 C-3.19625 8.67 -4.3925 8.34 -5.625 8 C-10.09147746 6.89521759 -14.01233746 6.16308946 -18.375 8 C-18.91125 8.33 -19.4475 8.66 -20 9 C-20 10.98 -20 12.96 -20 15 C-19.5059668 15.24645264 -19.01193359 15.49290527 -18.50292969 15.74682617 C-16.24561192 16.88157589 -13.99793864 18.0342892 -11.75 19.1875 C-10.58404297 19.76854492 -10.58404297 19.76854492 -9.39453125 20.36132812 C-3.85877483 23.22383465 -0.05363937 25.83908189 2 32 C2.36826224 37.61599916 2.21556007 41.17665989 -1 46 C-6.1841387 51.24079595 -10.57789783 52.19764889 -17.75 52.25 C-18.4409375 52.270625 -19.131875 52.29125 -19.84375 52.3125 C-24.94852042 52.35088173 -28.42946746 51.27330153 -33 49 C-32.34 46.03 -31.68 43.06 -31 40 C-29.60587891 40.37705078 -29.60587891 40.37705078 -28.18359375 40.76171875 C-20.36101136 43.04061073 -20.36101136 43.04061073 -12.625 41.6875 C-11.75875 41.130625 -10.8925 40.57375 -10 40 C-9.32987578 37.2140814 -9.32987578 37.2140814 -10 34 C-13.48443038 30.81501286 -17.96383713 29.01126803 -22.1875 27 C-26.41316257 24.95371458 -29.86083813 22.27832374 -32 18 C-32.53718762 13.10366692 -32.52418708 9.1322441 -30.4375 4.625 C-26.68225536 0.58089039 -23.11848678 -1.41845461 -17.8125 -2.875 C-12.03560721 -3.06440632 -5.24658799 -2.623294 0 0 Z " fill="#007BC5" transform="translate(908,325)"/>
<path d="M0 0 C-0.33 2.64 -0.66 5.28 -1 8 C-4.25980626 9.08660209 -4.86212497 8.86481472 -8 8 C-9.51696689 7.86328895 -11.03969915 7.78091981 -12.5625 7.75 C-13.32691406 7.72421875 -14.09132813 7.6984375 -14.87890625 7.671875 C-17.06268692 7.86023242 -17.06268692 7.86023242 -18.83984375 9.203125 C-20.18817893 10.98353956 -20.18817893 10.98353956 -20.20703125 13.41015625 C-18.28522557 17.53364223 -14.69402797 18.59719668 -10.6875 20.4375 C-4.92514562 23.09519973 -0.89941231 25.01805461 2 31 C2.84566778 35.80099581 2.64250873 40.41063629 0.8125 44.9375 C-3.56996777 49.92444608 -7.78134938 52.62072069 -14.4765625 53.22265625 C-21.22534061 53.44127864 -26.63800141 52.21286907 -33 50 C-32.34 47.03 -31.68 44.06 -31 41 C-29.68 41.33 -28.36 41.66 -27 42 C-21.74871007 43.15776471 -16.83406704 43.79935224 -11.5625 42.3125 C-9.81721717 41.03623062 -9.81721717 41.03623062 -8.9375 38.6875 C-8.74773295 35.83251954 -8.74773295 35.83251954 -10.875 33.4375 C-14.67594376 30.47276387 -18.57112151 28.82318131 -23 27 C-27.46432139 25.01585716 -29.36463651 22.61841934 -31.33203125 18.25 C-32.50514191 14.29846936 -32.2302004 10.90769539 -31 7 C-28.20801255 2.43129326 -25.318002 0.06520291 -20.30859375 -1.53515625 C-13.32734443 -2.9408562 -6.66732902 -2.37060587 0 0 Z " fill="#007BC5" transform="translate(781,246)"/>
<path d="M0 0 C0.99030231 4.12048864 0.87125129 6.14742381 -1 10 C-2.155 9.649375 -3.31 9.29875 -4.5 8.9375 C-9.02384558 7.80251383 -12.44061794 8.05667957 -17 9 C-19.31955446 10.8671279 -19.31955446 10.8671279 -19.11328125 13.8671875 C-17.88945854 17.31106755 -17.58796493 17.58311983 -14.54296875 19.1953125 C-13.10134472 19.86108551 -11.64882094 20.50365094 -10.1875 21.125 C-1.0551602 25.16758242 -1.0551602 25.16758242 2 29 C3.92597927 34.77793782 3.93718691 40.85227999 1.5 46.4375 C-3.52065841 51.58367487 -7.64377427 53.1825863 -14.93457031 53.41455078 C-15.98789551 53.42591064 -15.98789551 53.42591064 -17.0625 53.4375 C-17.73506836 53.44765137 -18.40763672 53.45780273 -19.10058594 53.46826172 C-24.1226011 53.38108248 -27.57716706 52.16828091 -32 50 C-31.34 47.03 -30.68 44.06 -30 41 C-29.05898438 41.23976563 -28.11796875 41.47953125 -27.1484375 41.7265625 C-25.90320313 42.02304687 -24.65796875 42.31953125 -23.375 42.625 C-22.14523437 42.92664063 -20.91546875 43.22828125 -19.6484375 43.5390625 C-15.6979238 44.0381638 -13.57759946 43.68513972 -10 42 C-8.44150449 39.64653258 -8.44150449 39.64653258 -8 37 C-8.66561141 33.98765007 -8.66561141 33.98765007 -10.6105957 32.91259766 C-11.29210693 32.58308105 -11.97361816 32.25356445 -12.67578125 31.9140625 C-13.42150391 31.54023438 -14.16722656 31.16640625 -14.93554688 30.78125 C-16.50763369 30.01652084 -18.0805389 29.25347159 -19.65429688 28.4921875 C-24.1126627 26.25342082 -27.32554699 24.39079012 -30 20 C-31.3649375 15.71126195 -31.33062511 12.01132387 -29.9375 7.75 C-26.4143045 2.74933542 -23.2780465 0.05010562 -17.375 -1.4375 C-11.40119114 -2.43009934 -5.84892762 -1.30646149 0 0 Z " fill="#007CC5" transform="translate(629,324)"/>
<path d="M0 0 C-0.66 2.97 -1.32 5.94 -2 9 C-3.06927734 8.76023438 -3.06927734 8.76023438 -4.16015625 8.515625 C-10.00338844 7.4546805 -15.79524543 7.23835751 -21.4375 9.1875 C-25.26164212 11.89238101 -27.51659586 14.54978759 -29 19 C-29.84589639 29.05960242 -29.84589639 29.05960242 -26 38 C-19.92974341 42.67915613 -15.38877751 43.32671465 -8 43 C-5.9920923 42.71818839 -3.9862302 42.40743184 -2 42 C-1.34 44.97 -0.68 47.94 0 51 C-10.7039334 54.29351797 -20.89737487 54.16917652 -31 49 C-33.9375 46.625 -33.9375 46.625 -36 44 C-36.721875 43.113125 -37.44375 42.22625 -38.1875 41.3125 C-42.34094643 33.7217186 -42.81869876 25.38755151 -41 17 C-38.20208431 8.64243287 -33.74891051 3.86900088 -25.94140625 -0.02734375 C-17.62505731 -3.33862397 -8.30047636 -3.12356757 0 0 Z " fill="#007CC5" transform="translate(639,246)"/>
<path d="M0 0 C-0.33 2.64 -0.66 5.28 -1 8 C-4 9 -4 9 -7 8 C-13.6490786 7.24808481 -18.92063538 7.46981559 -24.40625 11.5390625 C-28.80847401 15.57443451 -29.23482372 19.63393365 -29.5 25.375 C-29.3417346 31.40284748 -28.36065193 35.69454619 -24 40 C-17.07014167 44.2645282 -9.71532808 43.5826314 -2 42 C0 47.625 0 47.625 0 51 C-9.58375081 53.9488464 -19.04395754 54.28955923 -28.44921875 50.46484375 C-33.81317134 47.38447281 -37.77562996 42.87827318 -40.19140625 37.19921875 C-42.27069705 28.97245951 -42.46788095 18.45110978 -38.3125 10.890625 C-29.46488358 -1.85415579 -14.45269561 -5.40085785 0 0 Z " fill="#007CC5" transform="translate(1049,246)"/>
<path d="M0 0 C-0.66 2.64 -1.32 5.28 -2 8 C-2.9178125 7.89300781 -3.835625 7.78601563 -4.78125 7.67578125 C-14.78657875 6.68210562 -14.78657875 6.68210562 -24 10 C-28.4204071 14.4204071 -30.09213377 18.64601621 -30.375 24.8125 C-30.26751403 29.9564715 -28.95950322 33.79811147 -26 38 C-22.64754843 41.14927268 -19.53809748 42.13186539 -14.98828125 42.09765625 C-14.23095703 42.09443359 -13.47363281 42.09121094 -12.69335938 42.08789062 C-11.90767578 42.07951172 -11.12199219 42.07113281 -10.3125 42.0625 C-9.51521484 42.05798828 -8.71792969 42.05347656 -7.89648438 42.04882812 C-5.93095743 42.0370585 -3.96546915 42.01912348 -2 42 C-1.505 45.96 -1.505 45.96 -1 50 C-5.3867396 52.17173893 -9.50917201 52.34820467 -14.3125 52.3125 C-15.45090332 52.30621582 -15.45090332 52.30621582 -16.61230469 52.29980469 C-24.26184418 52.14490234 -30.44988015 50.70012309 -36 45 C-41.60961818 36.38693186 -42.85126736 29.27432405 -42 19 C-40.28616813 12.17261542 -37.21709181 5.84913138 -31.25390625 1.8203125 C-22.070403 -3.24262491 -9.47038304 -5.37389177 0 0 Z " fill="#007CC5" transform="translate(831,325)"/>
<path d="M0 0 C4.29 0 8.58 0 13 0 C13.63808594 1.43214844 14.27617188 2.86429688 14.93359375 4.33984375 C15.76810921 6.20578282 16.60275115 8.07166533 17.4375 9.9375 C17.85837891 10.88302734 18.27925781 11.82855469 18.71289062 12.80273438 C19.11572266 13.70185547 19.51855469 14.60097656 19.93359375 15.52734375 C20.4913147 16.77632446 20.4913147 16.77632446 21.06030273 18.05053711 C21.84730109 19.95727812 21.84730109 19.95727812 23 21 C23.2673999 20.39937744 23.5347998 19.79875488 23.81030273 19.17993164 C25.01700028 16.47305806 26.22720141 13.76776528 27.4375 11.0625 C27.85837891 10.11697266 28.27925781 9.17144531 28.71289062 8.19726562 C29.11572266 7.29814453 29.51855469 6.39902344 29.93359375 5.47265625 C30.30540771 4.64000244 30.67722168 3.80734863 31.06030273 2.94946289 C32 1 32 1 33 0 C35.01964199 -0.07244053 37.04167124 -0.08377188 39.0625 -0.0625 C40.71958984 -0.04896484 40.71958984 -0.04896484 42.41015625 -0.03515625 C43.26480469 -0.02355469 44.11945313 -0.01195312 45 0 C44.05068282 1.98350709 43.08969691 3.96142729 42.125 5.9375 C41.66939697 6.88206055 41.66939697 6.88206055 41.20458984 7.84570312 C39.45510161 11.38453916 37.59147354 14.69334886 35.34375 17.94140625 C27.52166634 29.4673613 26.56534713 39.20616348 27 53 C23.7 53 20.4 53 17 53 C17.07863281 51.70191406 17.15726563 50.40382813 17.23828125 49.06640625 C17.64621932 33.0823801 12.47729626 22.0796542 4.45019531 8.484375 C2.82982404 5.70846623 1.38080951 2.90069335 0 0 Z " fill="#007BC5" transform="translate(1051,245)"/>
<path d="M0 0 C13.2 0 26.4 0 40 0 C40 2.97 40 5.94 40 9 C35.05 9 30.1 9 25 9 C25 23.52 25 38.04 25 53 C21.37 53 17.74 53 14 53 C14 38.48 14 23.96 14 9 C9.38 9 4.76 9 0 9 C0 6.03 0 3.06 0 0 Z " fill="#007DC4" transform="translate(869,245)"/>
<path d="M0 0 C3.3 0 6.6 0 10 0 C10 14.52 10 29.04 10 44 C17.26 44 24.52 44 32 44 C32 46.97 32 49.94 32 53 C21.44 53 10.88 53 0 53 C0 35.51 0 18.02 0 0 Z " fill="#007DC5" transform="translate(843,245)"/>
<path d="M0 0 C3.63 0 7.26 0 11 0 C11 17.82 11 35.64 11 54 C7.37 54 3.74 54 0 54 C0 36.18 0 18.36 0 0 Z " fill="#007DC5" transform="translate(771,323)"/>
<path d="M0 0 C0.33 0.66 0.66 1.32 1 2 C0.22265625 3.9453125 0.22265625 3.9453125 -0.9375 6.125 C-1.31777344 6.84945312 -1.69804687 7.57390625 -2.08984375 8.3203125 C-2.39019531 8.87460938 -2.69054687 9.42890625 -3 10 C-3.99 10 -4.98 10 -6 10 C-4.6302836 6.00499382 -2.74277578 3.19990508 0 0 Z " fill="#7E00D0" transform="translate(428,186)"/>
</svg>
